<svg width="20" height="20" fill="none" xmlns="http://www.w3.org/2000/svg"><path d="M7.269 9.718a.33.33 0 01-.331.331H5.695a.33.33 0 01-.331-.331V8.475a.33.33 0 01.331-.331h1.243a.33.33 0 01.331.331v1.243zm2.596-1.239a.33.33 0 00-.331-.331H8.29a.33.33 0 00-.331.331v1.243a.33.33 0 00.331.331h1.243a.33.33 0 00.331-.331V8.479zm2.596 0a.33.33 0 00-.331-.331h-1.243a.33.33 0 00-.331.331v1.243a.33.33 0 00.331.331h1.243a.33.33 0 00.331-.331V8.479zM7.27 11.006a.33.33 0 00-.331-.331H5.695a.33.33 0 00-.331.33v1.244a.33.33 0 00.331.33h1.243a.33.33 0 00.331-.33v-1.243zm2.596 0a.33.33 0 00-.331-.331H8.29a.33.33 0 00-.331.33v1.244a.33.33 0 00.331.33h1.243a.33.33 0 00.331-.33v-1.243zm2.265-.331h-1.243a.33.33 0 00-.331.33v1.244a.33.33 0 00.331.33h1.243a.33.33 0 00.331-.33v-1.243a.33.33 0 00-.331-.331zM4.338 13.2h-1.24a.33.33 0 00-.33.331v1.243a.33.33 0 00.33.331h1.244a.33.33 0 00.33-.33v-1.244a.333.333 0 00-.334-.33zm.335-2.195a.33.33 0 00-.331-.331H3.099a.33.33 0 00-.331.33v1.244a.33.33 0 00.33.33h1.244a.33.33 0 00.33-.33v-1.243zm4.86 2.195H8.292a.33.33 0 00-.331.331v1.243a.33.33 0 00.331.331h1.243a.33.33 0 00.331-.33v-1.244a.33.33 0 00-.331-.33zm-2.595 0H5.695a.33.33 0 00-.331.331v1.243a.33.33 0 00.331.331h1.243a.33.33 0 00.331-.33v-1.244a.33.33 0 00-.331-.33zm7.788-3.148a.33.33 0 00.331-.331V8.479a.33.33 0 00-.33-.331h-1.244a.33.33 0 00-.33.331v1.243a.33.33 0 00.33.331h1.243zM1.95 17.805h9.432a5.086 5.086 0 01-.241-1.505H1.95a.442.442 0 01-.442-.442V6.976h14.787v4.133c.523.004 1.03.082 1.505.233V3.863c0-1.075-.875-1.95-1.95-1.95h-2.184V.711a.712.712 0 00-.71-.711h-1.108a.712.712 0 00-.712.711v1.206H6.664V.711A.712.712 0 005.953 0H4.845a.712.712 0 00-.712.711v1.206H1.95C.875 1.917 0 2.792 0 3.867v11.991c0 1.072.875 1.947 1.95 1.947zM20 16.243a3.725 3.725 0 11-7.45-.001 3.725 3.725 0 017.45 0zm-1.844-.965a.447.447 0 00-.764-.315l-1.62 1.62-.62-.622a.447.447 0 10-.634.63l.936.936a.447.447 0 00.633 0l1.934-1.934a.42.42 0 00.135-.315z" fill="#333"/></svg>