<svg width="20" height="20" fill="none" xmlns="http://www.w3.org/2000/svg"><path d="M14.765 4.221c.766 0 1.387-.617 1.387-1.385V1.387C16.152.62 15.532 0 14.765 0c-.768 0-1.387.618-1.387 1.387v1.45c0 .767.62 1.384 1.387 1.384z" fill="#00D053"/><path d="M19.694 2.899a.5.5 0 00-.5-.5H17.4a.5.5 0 00-.5.5v.206a2.113 2.113 0 01-4.223 0V2.9a.5.5 0 00-.5-.5H7.541a.5.5 0 00-.5.5v.205A2.115 2.115 0 014.93 5.217a2.114 2.114 0 01-2.112-2.112v-.212a.5.5 0 00-.494-.5L.506 2.371a.5.5 0 00-.506.5V19.5a.5.5 0 00.5.5h17.807l.908-.003a.5.5 0 00.499-.5l-.02-16.598zm-1.388 15.696H1.909a.5.5 0 01-.5-.5V7.83a.5.5 0 01.5-.5h15.898a.5.5 0 01.5.5v10.765l-.001.001z" fill="#00D053"/><path d="M4.908 4.221c.766 0 1.388-.617 1.388-1.385V1.387C6.296.618 5.674 0 4.908 0 4.14 0 3.522.618 3.522 1.387v1.45c0 .767.619 1.384 1.386 1.384zm4.257 4.62H7.146a.1.1 0 00-.1.1V10.7a.1.1 0 00.1.1h2.02a.1.1 0 00.1-.1V8.94a.1.1 0 00-.1-.1zm3.59 0h-2.02a.1.1 0 00-.1.1V10.7a.1.1 0 00.1.1h2.02a.1.1 0 00.1-.1V8.94a.1.1 0 00-.1-.1zm3.325 0h-2.018a.1.1 0 00-.1.1V10.7a.1.1 0 00.1.1h2.019a.1.1 0 00.1-.1V8.94a.1.1 0 00-.1-.1zm-6.915 3.253H7.146a.1.1 0 00-.1.1v1.757a.1.1 0 00.1.1h2.02a.1.1 0 00.1-.1v-1.757a.1.1 0 00-.1-.1zm3.59 0h-2.02a.1.1 0 00-.1.1v1.757a.1.1 0 00.1.1h2.02a.1.1 0 00.1-.1v-1.757a.1.1 0 00-.1-.1zm3.325 0h-2.018a.1.1 0 00-.1.1v1.757a.1.1 0 00.1.1h2.019a.1.1 0 00.1-.1v-1.757a.1.1 0 00-.1-.1zM9.165 15.41H7.146a.1.1 0 00-.1.1v1.758a.1.1 0 00.1.1h2.02a.1.1 0 00.1-.1v-1.757a.1.1 0 00-.1-.1zM5.64 12.094H3.622a.1.1 0 00-.1.1v1.757a.1.1 0 00.1.1H5.64a.1.1 0 00.1-.1v-1.757a.1.1 0 00-.1-.1zm0 3.316H3.622a.1.1 0 00-.1.1v1.758a.1.1 0 00.1.1H5.64a.1.1 0 00.1-.1v-1.757a.1.1 0 00-.1-.1zm7.115 0h-2.02a.1.1 0 00-.1.1v1.758a.1.1 0 00.1.1h2.02a.1.1 0 00.1-.1v-1.757a.1.1 0 00-.1-.1zm3.325 0h-2.018a.1.1 0 00-.1.1v1.758a.1.1 0 00.1.1h2.019a.1.1 0 00.1-.1v-1.757a.1.1 0 00-.1-.1z" fill="#00D053"/></svg>