<svg width="20" height="20" fill="none" xmlns="http://www.w3.org/2000/svg"><path d="M15.205 13.23c-.653-.645-1.47-.645-2.118 0-.496.491-.99.982-1.478 1.482-.133.137-.245.166-.408.075-.32-.175-.661-.317-.97-.508-1.435-.903-2.638-2.064-3.703-3.371-.529-.65-1-1.344-1.328-2.127-.067-.158-.054-.262.075-.391.495-.479.978-.97 1.465-1.46.678-.683.678-1.482-.004-2.17-.387-.39-.774-.773-1.161-1.164-.4-.4-.795-.804-1.199-1.199-.653-.637-1.47-.637-2.118.004-.5.491-.978.995-1.486 1.478-.47.445-.708.99-.758 1.627C-.065 6.542.19 7.52.547 8.473c.733 1.973 1.848 3.725 3.2 5.332a19.806 19.806 0 006.56 5.131c1.148.558 2.338.986 3.633 1.057.89.05 1.665-.175 2.285-.87.424-.474.903-.907 1.352-1.36.666-.675.67-1.49.009-2.157-.791-.794-1.586-1.585-2.381-2.376zm-.694-3.312l1.536-.262a6.864 6.864 0 00-1.919-3.704A6.827 6.827 0 0010.216 4L10 5.544a5.297 5.297 0 013.03 1.51 5.296 5.296 0 011.481 2.864zm2.3-6.68A11.323 11.323 0 0010.32 0l-.216 1.544a9.825 9.825 0 015.61 2.797 9.81 9.81 0 012.75 5.306L20 9.385a11.406 11.406 0 00-3.188-6.147z" fill="#333"/></svg>